HIERARCHY
ROOT Hips
{
  OFFSET 0.000 72.348 0.000
  CHANNELS 6 Xposition Yposition Zposition Zrotation Xrotation Yrotation
  JOINT LeftUpLeg
  {
    OFFSET 6.277 0.455 3.241
    CHANNELS 6 Xposition Yposition Zposition Zrotation Xrotation Yrotation
    JOINT LeftLeg
    {
      OFFSET 0.000 -34.088 0.000
      CHANNELS 6 Xposition Yposition Zposition Zrotation Xrotation Yrotation
      JOINT LeftFoot
      {
        OFFSET 0.000 -38.714 0.000
        CHANNELS 6 Xposition Yposition Zposition Zrotation Xrotation Yrotation
        End Site
        {
          OFFSET 0.000 0.000 10.144
        }
      }
    }
  }
  JOINT RightUpLeg
  {
    OFFSET -6.277 0.455 3.241
    CHANNELS 6 Xposition Yposition Zposition Zrotation Xrotation Yrotation
    JOINT RightLeg
    {
      OFFSET 0.000 -34.088 0.000
      CHANNELS 6 Xposition Yposition Zposition Zrotation Xrotation Yrotation
      JOINT RightFoot
      {
        OFFSET 0.000 -38.714 0.000
        CHANNELS 6 Xposition Yposition Zposition Zrotation Xrotation Yrotation
        End Site
        {
          OFFSET 0.000 0.000 10.144
        }
      }
    }
  }
  JOINT Spine
  {
    OFFSET 0.000 28.818 0.000
    CHANNELS 6 Xposition Yposition Zposition Zrotation Xrotation Yrotation
    JOINT Spine1
    {
      OFFSET 0.000 21.210 0.000
      CHANNELS 6 Xposition Yposition Zposition Zrotation Xrotation Yrotation
      JOINT LeftShoulder
      {
        OFFSET 1.326 -0.260 0.395
        CHANNELS 6 Xposition Yposition Zposition Zrotation Xrotation Yrotation
        JOINT LeftArm
        {
          OFFSET 13.174 0.000 0.000
          CHANNELS 6 Xposition Yposition Zposition Zrotation Xrotation Yrotation
          JOINT LeftForeArm
          {
            OFFSET 23.861 0.000 0.000
            CHANNELS 6 Xposition Yposition Zposition Zrotation Xrotation Yrotation
            JOINT LeftHand
            {
              OFFSET 22.344 0.000 0.000
              CHANNELS 6 Xposition Yposition Zposition Zrotation Xrotation Yrotation
              JOINT LeftHandThumb1
              {
                OFFSET 4.877 -1.044 3.608
                CHANNELS 6 Xposition Yposition Zposition Zrotation Xrotation Yrotation
                JOINT LeftHandThumb2
                {
                  OFFSET 2.665 0.000 0.000
                  CHANNELS 6 Xposition Yposition Zposition Zrotation Xrotation Yrotation
                  JOINT LeftHandThumb3
                  {
                    OFFSET 2.543 0.000 0.000
                    CHANNELS 6 Xposition Yposition Zposition Zrotation Xrotation Yrotation
                    End Site
                    {
                      OFFSET 2.667 0.000 0.000
                    }
                  }
                }
              }
              JOINT LeftHandIndex1
              {
                OFFSET 9.232 -0.301 2.144
                CHANNELS 6 Xposition Yposition Zposition Zrotation Xrotation Yrotation
                JOINT LeftHandIndex2
                {
                  OFFSET 4.225 0.000 -0.000
                  CHANNELS 6 Xposition Yposition Zposition Zrotation Xrotation Yrotation
                  JOINT LeftHandIndex3
                  {
                    OFFSET 2.654 -0.000 0.000
                    CHANNELS 6 Xposition Yposition Zposition Zrotation Xrotation Yrotation
                    End Site
                    {
                      OFFSET 1.958 0.000 -0.000
                    }
                  }
                }
              }
              JOINT LeftHandMiddle1
              {
                OFFSET 8.920 -0.000 0.000
                CHANNELS 6 Xposition Yposition Zposition Zrotation Xrotation Yrotation
                JOINT LeftHandMiddle2
                {
                  OFFSET 4.863 0.000 0.000
                  CHANNELS 6 Xposition Yposition Zposition Zrotation Xrotation Yrotation
                  JOINT LeftHandMiddle3
                  {
                    OFFSET 2.765 -0.000 0.000
                    CHANNELS 6 Xposition Yposition Zposition Zrotation Xrotation Yrotation
                    End Site
                    {
                      OFFSET 2.006 0.000 0.000
                    }
                  }
                }
              }
              JOINT LeftHandRing1
              {
                OFFSET 8.689 -0.126 -2.087
                CHANNELS 6 Xposition Yposition Zposition Zrotation Xrotation Yrotation
                JOINT LeftHandRing2
                {
                  OFFSET 4.538 0.000 0.000
                  CHANNELS 6 Xposition Yposition Zposition Zrotation Xrotation Yrotation
                  JOINT LeftHandRing3
                  {
                    OFFSET 2.305 0.000 0.000
                    CHANNELS 6 Xposition Yposition Zposition Zrotation Xrotation Yrotation
                    End Site
                    {
                      OFFSET 1.923 0.000 0.000
                    }
                  }
                }
              }
              JOINT LeftHandPinky1
              {
                OFFSET 8.391 -0.817 -3.758
                CHANNELS 6 Xposition Yposition Zposition Zrotation Xrotation Yrotation
                JOINT LeftHandPinky2
                {
                  OFFSET 3.044 0.000 0.000
                  CHANNELS 6 Xposition Yposition Zposition Zrotation Xrotation Yrotation
                  JOINT LeftHandPinky3
                  {
                    OFFSET 1.975 0.000 -0.000
                    CHANNELS 6 Xposition Yposition Zposition Zrotation Xrotation Yrotation
                    End Site
                    {
                      OFFSET 1.667 -0.000 0.000
                    }
                  }
                }
              }
            }
          }
        }
      }
      JOINT RightShoulder
      {
        OFFSET -1.326 -0.260 0.395
        CHANNELS 6 Xposition Yposition Zposition Zrotation Xrotation Yrotation
        JOINT RightArm
        {
          OFFSET -13.174 0.000 0.000
          CHANNELS 6 Xposition Yposition Zposition Zrotation Xrotation Yrotation
          JOINT RightForeArm
          {
            OFFSET -23.861 0.000 0.000
            CHANNELS 6 Xposition Yposition Zposition Zrotation Xrotation Yrotation
            JOINT RightHand
            {
              OFFSET -22.344 0.000 0.000
              CHANNELS 6 Xposition Yposition Zposition Zrotation Xrotation Yrotation
              JOINT RightHandThumb1
              {
                OFFSET -4.877 -1.044 3.608
                CHANNELS 6 Xposition Yposition Zposition Zrotation Xrotation Yrotation
                JOINT RightHandThumb2
                {
                  OFFSET -2.665 0.000 -0.000
                  CHANNELS 6 Xposition Yposition Zposition Zrotation Xrotation Yrotation
                  JOINT RightHandThumb3
                  {
                    OFFSET -2.543 0.000 -0.000
                    CHANNELS 6 Xposition Yposition Zposition Zrotation Xrotation Yrotation
                    End Site
                    {
                      OFFSET -2.667 0.000 0.000
                    }
                  }
                }
              }
              JOINT RightHandIndex1
              {
                OFFSET -9.232 -0.301 2.144
                CHANNELS 6 Xposition Yposition Zposition Zrotation Xrotation Yrotation
                JOINT RightHandIndex2
                {
                  OFFSET -4.225 0.000 -0.000
                  CHANNELS 6 Xposition Yposition Zposition Zrotation Xrotation Yrotation
                  JOINT RightHandIndex3
                  {
                    OFFSET -2.654 0.000 0.000
                    CHANNELS 6 Xposition Yposition Zposition Zrotation Xrotation Yrotation
                    End Site
                    {
                      OFFSET -1.958 -0.000 -0.000
                    }
                  }
                }
              }
              JOINT RightHandMiddle1
              {
                OFFSET -8.920 0.000 -0.000
                CHANNELS 6 Xposition Yposition Zposition Zrotation Xrotation Yrotation
                JOINT RightHandMiddle2
                {
                  OFFSET -4.863 0.000 0.000
                  CHANNELS 6 Xposition Yposition Zposition Zrotation Xrotation Yrotation
                  JOINT RightHandMiddle3
                  {
                    OFFSET -2.765 0.000 0.000
                    CHANNELS 6 Xposition Yposition Zposition Zrotation Xrotation Yrotation
                    End Site
                    {
                      OFFSET -2.006 -0.000 -0.000
                    }
                  }
                }
              }
              JOINT RightHandRing1
              {
                OFFSET -8.689 -0.126 -2.087
                CHANNELS 6 Xposition Yposition Zposition Zrotation Xrotation Yrotation
                JOINT RightHandRing2
                {
                  OFFSET -4.538 0.000 0.000
                  CHANNELS 6 Xposition Yposition Zposition Zrotation Xrotation Yrotation
                  JOINT RightHandRing3
                  {
                    OFFSET -2.305 0.000 0.000
                    CHANNELS 6 Xposition Yposition Zposition Zrotation Xrotation Yrotation
                    End Site
                    {
                      OFFSET -1.923 -0.000 0.000
                    }
                  }
                }
              }
              JOINT RightHandPinky1
              {
                OFFSET -8.391 -0.817 -3.758
                CHANNELS 6 Xposition Yposition Zposition Zrotation Xrotation Yrotation
                JOINT RightHandPinky2
                {
                  OFFSET -3.044 0.000 0.000
                  CHANNELS 6 Xposition Yposition Zposition Zrotation Xrotation Yrotation
                  JOINT RightHandPinky3
                  {
                    OFFSET -1.975 0.000 -0.000
                    CHANNELS 6 Xposition Yposition Zposition Zrotation Xrotation Yrotation
                    End Site
                    {
                      OFFSET -1.667 0.000 -0.000
                    }
                  }
                }
              }
            }
          }
        }
      }
      JOINT Neck
      {
        OFFSET 0.000 0.693 0.000
        CHANNELS 6 Xposition Yposition Zposition Zrotation Xrotation Yrotation
        JOINT Head
        {
          OFFSET 0.000 6.270 0.000
          CHANNELS 6 Xposition Yposition Zposition Zrotation Xrotation Yrotation
          End Site
          {
            OFFSET 0.000 13.330 0.000
          }
        }
      }
    }
  }
}
MOTION
Frames:	4
Frame Time:	0.033333
-135.84363 85.12378 -321.34280 0.03823 3.51367 35.34119 5.54822 0.70280 3.38343 5.71131 18.00029 33.74495 -0.00337 -26.65783 -0.00563 -24.70358 -10.51797 -34.41861 0.00704 -42.70102 0.00262 1.22280 17.48194 -4.04919 -7.07633 -0.17976 3.38510 5.47353 5.80601 26.80888 -0.00558 -37.58510 0.00268 -4.47094 -4.97033 -22.92685 0.02669 -31.93010 0.00225 1.62749 12.64275 -7.41016 -0.00051 27.55592 -0.00706 0.52261 1.83535 1.58011 0.00194 20.36485 -0.00403 0.36927 2.51301 1.50581 1.37883 0.10129 0.21628 4.08097 -0.63012 -8.76554 12.69098 -0.00179 0.00050 58.77666 -8.16787 -10.09109 21.39900 0.00678 -0.00294 27.17632 -15.02798 9.19895 23.50050 0.00639 -0.00680 13.41741 -28.04178 -6.70464 4.87700 -1.04401 3.60799 -24.66570 4.20854 -9.07946 2.66500 0.00002 0.00002 0.00000 -0.00000 10.00024 2.54301 0.00000 0.00005 -0.00000 -0.00000 15.00000 9.23199 -0.30105 2.14403 -20.00000 0.00000 -0.00000 4.22499 0.00002 -0.00002 -25.00000 -0.00000 -0.00000 2.65401 -0.00002 0.00002 -29.90548 2.49781 -4.33305 8.92000 -0.00007 0.00002 -20.00000 0.00000 -0.00000 4.86299 0.00002 0.00000 -25.00000 -0.00000 -0.00000 2.76498 -0.00002 0.00002 -29.90549 2.49765 -4.33314 8.68897 -0.12603 -2.08700 -20.00000 0.00000 -0.00000 4.53798 0.00000 0.00000 -25.00000 -0.00000 -0.00000 2.30500 0.00000 0.00002 -29.90549 2.49765 -4.33314 8.39100 -0.81704 -3.75800 -20.00000 0.00000 -0.00000 3.04399 0.00002 0.00005 -25.00000 -0.00000 -0.00000 1.97499 0.00000 -0.00002 -29.90548 2.49781 -4.33305 -1.42101 0.04499 0.21664 -2.10833 -0.32015 8.64761 -12.86322 -0.00631 -0.00636 -74.66191 -8.16091 1.19083 -28.39125 0.00725 0.00528 -24.37198 -20.53824 -0.49961 -23.84119 0.00322 0.00487 -8.32046 -19.43801 20.34485 -4.87700 -1.04399 3.60799 24.66569 4.20854 9.07947 -2.66498 0.00000 -0.00002 0.00000 0.00000 -10.00000 -2.54300 0.00000 -0.00002 0.00000 0.00000 -15.00001 -9.23200 -0.30100 2.14398 20.00000 -0.00000 -0.00000 -4.22500 0.00007 -0.00002 25.00000 0.00000 0.00000 -2.65400 0.00000 0.00000 29.90550 2.49762 4.33288 -8.92000 0.00000 -0.00002 20.00000 -0.00000 -0.00000 -4.86300 0.00002 0.00002 25.00000 0.00000 0.00000 -2.76501 0.00000 0.00000 29.90550 2.49762 4.33288 -8.68901 -0.12598 -2.08702 20.00000 -0.00000 -0.00000 -4.53799 0.00002 0.00002 25.00000 0.00000 0.00000 -2.30501 0.00000 0.00000 29.90550 2.49762 4.33288 -8.39100 -0.81701 -3.75800 20.00000 -0.00000 -0.00000 -3.04399 0.00002 0.00000 25.00000 0.00000 0.00000 -1.97500 0.00002 -0.00002 29.90550 2.49762 4.33288 -0.00307 0.67227 -0.00134 -0.00004 -0.00007 -0.00101 -0.00027 6.03929 0.00286 -8.74634 -5.84360 -38.08015 
-135.83926 85.12378 -321.32202 0.01256 3.48507 35.35741 5.54822 0.69318 3.38343 5.73719 18.04671 33.70750 -0.00337 -26.65783 -0.00563 -24.68967 -10.57302 -34.42563 0.00704 -42.70102 0.00262 1.21609 17.47246 -4.02906 -7.07633 -0.16262 3.38510 5.44649 5.73230 26.67583 -0.00558 -37.58510 0.00268 -4.26335 -4.80417 -22.78952 0.02022 -31.79492 0.00225 1.60418 12.48565 -7.39471 -0.00051 27.55592 -0.00706 0.53306 1.84830 1.58128 0.00194 20.36485 -0.00403 0.38532 2.51641 1.51257 1.37883 0.10129 0.21628 4.10056 -0.62975 -8.71936 12.67911 -0.00179 0.00050 58.73759 -8.20181 -10.10711 21.37933 0.00678 -0.00294 27.17007 -15.03642 9.19932 23.48730 0.00639 -0.00680 13.86498 -28.35350 -6.49745 4.87700 -1.04401 3.60799 -24.66570 4.20854 -9.07946 2.66500 0.00002 0.00002 0.00000 -0.00000 10.00024 2.54301 0.00000 0.00005 -0.00000 -0.00000 15.00000 9.23199 -0.30105 2.14403 -20.00000 0.00000 -0.00000 4.22499 0.00002 -0.00002 -25.00000 -0.00000 -0.00000 2.65401 -0.00002 0.00002 -29.90548 2.49781 -4.33305 8.92000 -0.00007 0.00002 -20.00000 0.00000 -0.00000 4.86299 0.00002 0.00000 -25.00000 -0.00000 -0.00000 2.76498 -0.00002 0.00002 -29.90549 2.49765 -4.33314 8.68897 -0.12603 -2.08700 -20.00000 0.00000 -0.00000 4.53798 0.00000 0.00000 -25.00000 -0.00000 -0.00000 2.30500 0.00000 0.00002 -29.90549 2.49765 -4.33314 8.39100 -0.81704 -3.75800 -20.00000 0.00000 -0.00000 3.04399 0.00002 0.00005 -25.00000 -0.00000 -0.00000 1.97499 0.00000 -0.00002 -29.90548 2.49781 -4.33305 -1.42101 0.04499 0.21664 -2.09894 -0.31656 8.58704 -12.87369 -0.00631 -0.00636 -74.68283 -8.15786 1.22352 -28.39614 0.00725 0.00528 -24.40614 -20.63209 -0.54176 -23.57683 0.00322 0.00487 -8.00667 -19.03517 19.51447 -4.87700 -1.04399 3.60799 24.66569 4.20854 9.07947 -2.66498 0.00000 -0.00002 0.00000 0.00000 -10.00000 -2.54300 0.00000 -0.00002 0.00000 0.00000 -15.00001 -9.23200 -0.30100 2.14398 20.00000 -0.00000 -0.00000 -4.22500 0.00007 -0.00002 25.00000 0.00000 0.00000 -2.65400 0.00000 0.00000 29.90550 2.49762 4.33288 -8.92000 0.00000 -0.00002 20.00000 -0.00000 -0.00000 -4.86300 0.00002 0.00002 25.00000 0.00000 0.00000 -2.76501 0.00000 0.00000 29.90550 2.49762 4.33288 -8.68901 -0.12598 -2.08702 20.00000 -0.00000 -0.00000 -4.53799 0.00002 0.00002 25.00000 0.00000 0.00000 -2.30501 0.00000 0.00000 29.90550 2.49762 4.33288 -8.39100 -0.81701 -3.75800 20.00000 -0.00000 -0.00000 -3.04399 0.00002 0.00000 25.00000 0.00000 0.00000 -1.97500 0.00002 -0.00002 29.90550 2.49762 4.33288 -0.00307 0.67227 -0.00134 -0.00004 -0.00007 -0.00101 -0.00027 6.03929 0.00286 -8.71010 -5.91298 -37.86782 
-135.83157 85.12103 -321.30524 -0.00819 3.44564 35.37569 5.54771 0.68472 3.38343 5.76715 18.10151 33.67563 -0.00337 -26.65783 -0.00563 -24.68695 -10.63544 -34.42810 0.00704 -42.70102 0.00262 1.20327 17.46978 -3.98714 -7.07528 -0.15022 3.38510 5.42540 5.69689 26.56332 -0.00558 -37.58510 0.00268 -4.18318 -4.69971 -22.68348 0.01052 -31.59780 0.00225 1.58198 12.41648 -7.33482 -0.00051 27.55626 -0.00706 0.50692 1.81909 1.60310 0.00194 20.36485 -0.00403 0.39419 2.49169 1.54113 1.37883 0.10129 0.21628 4.13541 -0.64441 -8.83655 12.64955 -0.00179 0.00050 58.70806 -8.06324 -10.13445 21.35681 0.00678 -0.00294 27.16693 -15.04903 9.19644 23.45411 0.00639 -0.00680 14.07483 -28.47918 -6.58710 4.87700 -1.04401 3.60799 -24.66570 4.20854 -9.07946 2.66500 0.00002 0.00002 0.00000 -0.00000 10.00024 2.54301 0.00000 0.00005 -0.00000 -0.00000 15.00000 9.23199 -0.30105 2.14403 -20.00000 0.00000 -0.00000 4.22499 0.00002 -0.00002 -25.00000 -0.00000 -0.00000 2.65401 -0.00002 0.00002 -29.90548 2.49781 -4.33305 8.92000 -0.00007 0.00002 -20.00000 0.00000 -0.00000 4.86299 0.00002 0.00000 -25.00000 -0.00000 -0.00000 2.76498 -0.00002 0.00002 -29.90549 2.49765 -4.33314 8.68897 -0.12603 -2.08700 -20.00000 0.00000 -0.00000 4.53798 0.00000 0.00000 -25.00000 -0.00000 -0.00000 2.30500 0.00000 0.00002 -29.90549 2.49765 -4.33314 8.39100 -0.81704 -3.75800 -20.00000 0.00000 -0.00000 3.04399 0.00002 0.00005 -25.00000 -0.00000 -0.00000 1.97499 0.00000 -0.00002 -29.90548 2.49781 -4.33305 -1.42101 0.04499 0.21664 -2.02328 -0.30831 8.65916 -12.90816 -0.00631 -0.00636 -74.71454 -7.98069 1.22896 -28.40771 0.00725 0.00528 -24.41448 -20.73200 -0.52370 -23.35055 0.00322 0.00487 -7.52874 -18.50578 18.88973 -4.87700 -1.04399 3.60799 24.66569 4.20854 9.07947 -2.66498 0.00000 -0.00002 0.00000 0.00000 -10.00000 -2.54300 0.00000 -0.00002 0.00000 0.00000 -15.00001 -9.23200 -0.30100 2.14398 20.00000 -0.00000 -0.00000 -4.22500 0.00007 -0.00002 25.00000 0.00000 0.00000 -2.65400 0.00000 0.00000 29.90550 2.49762 4.33288 -8.92000 0.00000 -0.00002 20.00000 -0.00000 -0.00000 -4.86300 0.00002 0.00002 25.00000 0.00000 0.00000 -2.76501 0.00000 0.00000 29.90550 2.49762 4.33288 -8.68901 -0.12598 -2.08702 20.00000 -0.00000 -0.00000 -4.53799 0.00002 0.00002 25.00000 0.00000 0.00000 -2.30501 0.00000 0.00000 29.90550 2.49762 4.33288 -8.39100 -0.81701 -3.75800 20.00000 -0.00000 -0.00000 -3.04399 0.00002 0.00000 25.00000 0.00000 0.00000 -1.97500 0.00002 -0.00002 29.90550 2.49762 4.33288 -0.00307 0.67227 -0.00134 -0.00004 -0.00007 -0.00101 -0.00027 6.03929 0.00286 -8.50713 -5.75589 -37.92435 
-135.84666 85.13457 -321.24741 -0.06424 3.33257 35.38452 5.56720 0.66844 3.38343 5.93210 18.21536 33.73216 -0.00337 -26.65783 -0.00563 -24.76053 -10.62327 -34.50876 0.00704 -42.70102 0.00262 1.19783 17.45117 -3.97318 -7.10007 -0.13608 3.38510 5.58647 5.73186 26.56629 -0.00655 -37.58588 0.00268 -3.41735 -5.01266 -22.57377 0.06843 -32.63784 0.00225 1.63731 12.26844 -7.58879 -0.00051 27.53902 -0.00706 0.54572 1.82668 1.61408 0.00194 20.36485 -0.00403 0.38969 2.47342 1.56130 1.37883 0.10129 0.21754 4.20128 -0.66127 -8.91905 12.62426 -0.00179 0.00050 58.66235 -7.96719 -10.16014 21.33544 0.00678 -0.00294 27.17256 -15.02883 9.16436 23.43072 0.00639 -0.00680 14.19735 -28.51444 -6.34821 4.87700 -1.04401 3.60799 -24.66570 4.20854 -9.07946 2.66500 0.00002 0.00002 0.00000 -0.00000 10.00024 2.54301 0.00000 0.00005 -0.00000 -0.00000 15.00000 9.23199 -0.30105 2.14403 -20.00000 0.00000 -0.00000 4.22499 0.00002 -0.00002 -25.00000 -0.00000 -0.00000 2.65401 -0.00002 0.00002 -29.90548 2.49781 -4.33305 8.92000 -0.00007 0.00002 -20.00000 0.00000 -0.00000 4.86299 0.00002 0.00000 -25.00000 -0.00000 -0.00000 2.76498 -0.00002 0.00002 -29.90549 2.49765 -4.33314 8.68897 -0.12603 -2.08700 -20.00000 0.00000 -0.00000 4.53798 0.00000 0.00000 -25.00000 -0.00000 -0.00000 2.30500 0.00000 0.00002 -29.90549 2.49765 -4.33314 8.39100 -0.81704 -3.75800 -20.00000 0.00000 -0.00000 3.04399 0.00002 0.00005 -25.00000 -0.00000 -0.00000 1.97499 0.00000 -0.00002 -29.90548 2.49781 -4.33305 -1.42101 0.04499 0.21773 -1.93620 -0.29715 8.70490 -12.93456 -0.00631 -0.00636 -74.71912 -7.95346 1.26297 -28.41551 0.00725 0.00528 -24.45400 -20.74833 -0.50446 -23.23869 0.00322 0.00487 -7.60093 -18.43714 18.19748 -4.87700 -1.04399 3.60799 24.66569 4.20854 9.07947 -2.66498 0.00000 -0.00002 0.00000 0.00000 -10.00000 -2.54300 0.00000 -0.00002 0.00000 0.00000 -15.00001 -9.23200 -0.30100 2.14398 20.00000 -0.00000 -0.00000 -4.22500 0.00007 -0.00002 25.00000 0.00000 0.00000 -2.65400 0.00000 0.00000 29.90550 2.49762 4.33288 -8.92000 0.00000 -0.00002 20.00000 -0.00000 -0.00000 -4.86300 0.00002 0.00002 25.00000 0.00000 0.00000 -2.76501 0.00000 0.00000 29.90550 2.49762 4.33288 -8.68901 -0.12598 -2.08702 20.00000 -0.00000 -0.00000 -4.53799 0.00002 0.00002 25.00000 0.00000 0.00000 -2.30501 0.00000 0.00000 29.90550 2.49762 4.33288 -8.39100 -0.81701 -3.75800 20.00000 -0.00000 -0.00000 -3.04399 0.00002 0.00000 25.00000 0.00000 0.00000 -1.97500 0.00002 -0.00002 29.90550 2.49762 4.33288 -0.00307 0.67227 -0.00134 -0.00004 -0.00007 -0.00101 -0.00027 6.03929 0.00286 -8.28047 -5.60218 -38.27816 
